<svg id="Layer_1" data-name="Layer 1" xmlns="http://www.w3.org/2000/svg" xmlns:xlink="http://www.w3.org/1999/xlink" viewBox="0 0 1580 540"><defs><style>.cls-1{fill:url(#linear-gradient);}.cls-2{fill:url(#linear-gradient-2);}.cls-3{fill:url(#linear-gradient-3);}.cls-4{fill:url(#linear-gradient-4);}.cls-5{fill:url(#linear-gradient-5);}.cls-6{fill:url(#linear-gradient-6);}.cls-7{fill:url(#linear-gradient-7);}.cls-8{fill:url(#linear-gradient-8);}.cls-9{fill:url(#linear-gradient-9);}.cls-10{fill:url(#linear-gradient-10);}.cls-11{fill:url(#linear-gradient-11);}.cls-12{fill:url(#linear-gradient-12);}.cls-13{fill:url(#linear-gradient-13);}.cls-14{fill:url(#linear-gradient-14);}.cls-15{fill:#f05a40;}.cls-16{fill:url(#linear-gradient-15);}.cls-17{fill:url(#linear-gradient-16);}.cls-18{fill:url(#linear-gradient-17);}.cls-19{fill:url(#linear-gradient-18);}.cls-20{fill:url(#linear-gradient-19);}.cls-21{fill:url(#linear-gradient-20);}</style><linearGradient id="linear-gradient" x1="218.57" y1="187.51" x2="253.92" y2="187.51" gradientUnits="userSpaceOnUse"><stop offset="0" stop-color="#f69c8c"/><stop offset="0.8" stop-color="#f05a40"/></linearGradient><linearGradient id="linear-gradient-2" x1="233.94" y1="144.99" x2="331.02" y2="144.99" gradientUnits="userSpaceOnUse"><stop offset="0.4" stop-color="#f05a40"/><stop offset="1" stop-color="#f37b66"/></linearGradient><linearGradient id="linear-gradient-3" x1="297.25" y1="147.02" x2="333.42" y2="147.02" xlink:href="#linear-gradient"/><linearGradient id="linear-gradient-4" x1="251.52" y1="167.51" x2="299.64" y2="167.51" xlink:href="#linear-gradient"/><linearGradient id="linear-gradient-5" x1="376.35" y1="194.75" x2="310.29" y2="156.61" gradientUnits="userSpaceOnUse"><stop offset="0" stop-color="#fcded9"/><stop offset="0.8" stop-color="#f69c8c"/></linearGradient><linearGradient id="linear-gradient-6" x1="336.91" y1="168.77" x2="372.54" y2="168.77" gradientUnits="userSpaceOnUse"><stop offset="0.2" stop-color="#f69c8c"/><stop offset="1" stop-color="#fcded9"/></linearGradient><linearGradient id="linear-gradient-7" x1="218.57" y1="227.51" x2="238.12" y2="227.51" gradientUnits="userSpaceOnUse"><stop offset="0.2" stop-color="#f05a40"/><stop offset="1" stop-color="#f69c8c"/></linearGradient><linearGradient id="linear-gradient-8" x1="187.8" y1="284.75" x2="198.99" y2="284.75" gradientUnits="userSpaceOnUse"><stop offset="0" stop-color="#fcded9"/><stop offset="0.8" stop-color="#f37b66"/></linearGradient><linearGradient id="linear-gradient-9" x1="291.19" y1="241" x2="319.27" y2="241" xlink:href="#linear-gradient-5"/><linearGradient id="linear-gradient-10" x1="194.69" y1="311.74" x2="224.67" y2="311.74" xlink:href="#linear-gradient-6"/><linearGradient id="linear-gradient-11" x1="200.18" y1="279.62" x2="165.69" y2="339.36" xlink:href="#linear-gradient-6"/><linearGradient id="linear-gradient-12" x1="201.95" y1="288.5" x2="280.14" y2="288.5" xlink:href="#linear-gradient"/><linearGradient id="linear-gradient-13" x1="325.66" y1="234.52" x2="372.53" y2="234.52" xlink:href="#linear-gradient-8"/><linearGradient id="linear-gradient-14" x1="318.11" y1="256.73" x2="340.66" y2="194.78" xlink:href="#linear-gradient-5"/><linearGradient id="linear-gradient-15" x1="194.69" y1="346.74" x2="212.72" y2="346.74" xlink:href="#linear-gradient-6"/><linearGradient id="linear-gradient-16" x1="137.12" y1="337.21" x2="203.18" y2="375.35" xlink:href="#linear-gradient-6"/><linearGradient id="linear-gradient-17" x1="176.56" y1="385.48" x2="212.72" y2="385.48" xlink:href="#linear-gradient-6"/><linearGradient id="linear-gradient-18" x1="182.45" y1="409.48" x2="281.93" y2="409.48" xlink:href="#linear-gradient"/><linearGradient id="linear-gradient-19" x1="279.53" y1="368.98" x2="348.65" y2="368.98" xlink:href="#linear-gradient"/><linearGradient id="linear-gradient-20" x1="182.45" y1="386.96" x2="279.53" y2="386.96" gradientUnits="userSpaceOnUse"><stop offset="0" stop-color="#f37b66"/><stop offset="0.6" stop-color="#f05a40"/></linearGradient></defs><title>suredbits-hortizontal-orange</title><polygon class="cls-1" points="251.52 165.49 253.92 169.53 220.96 209.53 218.57 205.49 251.52 165.49"/><polygon class="cls-2" points="331.02 124.5 297.25 165.49 251.52 165.49 233.94 124.5 331.02 124.5"/><polygon class="cls-3" points="331.02 124.5 333.42 128.54 299.64 169.53 297.25 165.49 331.02 124.5"/><polygon class="cls-4" points="297.25 165.49 299.64 169.53 253.92 169.53 251.52 165.49 297.25 165.49"/><polygon class="cls-5" points="336.91 128 370.15 205.49 318.78 205.5 303.14 168.99 336.91 128"/><polygon class="cls-6" points="339.31 132.04 336.91 128 370.15 205.49 372.54 209.53 339.31 132.04"/><polygon class="cls-7" points="218.57 205.49 220.96 209.53 238.12 249.52 235.73 245.48 218.57 205.49"/><polygon class="cls-8" points="187.8 272.48 190.2 276.52 198.99 297.02 196.6 292.98 187.8 272.48"/><polygon class="cls-9" points="316.87 238.98 319.27 243.02 293.59 243.02 291.19 238.98 316.87 238.98"/><polygon class="cls-10" points="222.28 292.98 224.67 297.02 197.09 330.5 194.69 326.46 222.28 292.98"/><polygon class="cls-11" points="187.8 272.48 196.6 292.98 222.28 292.98 194.69 326.46 143.33 326.45 187.8 272.48"/><polygon class="cls-12" points="277.74 286.48 201.95 286.48 204.34 290.52 280.14 290.52 277.74 286.48"/><polygon class="cls-13" points="370.14 205.51 325.66 259.48 328.06 263.52 372.53 209.55 370.14 205.51"/><polygon class="cls-14" points="318.78 205.5 370.14 205.51 325.66 259.48 316.87 238.98 291.19 238.98 318.78 205.5"/><polygon class="cls-15" points="339.86 310.01 322.7 270.02 313.91 249.52 311.52 245.48 320.31 265.98 337.47 305.97 346.26 326.47 348.65 330.51 339.86 310.01"/><polygon class="cls-16" points="194.69 326.46 197.09 330.5 212.72 367.01 210.33 362.97 194.69 326.46"/><polygon class="cls-17" points="143.32 326.47 194.69 326.46 210.33 362.97 176.56 403.96 143.32 326.47"/><polygon class="cls-18" points="210.33 362.97 212.72 367.01 178.95 408 176.56 403.96 210.33 362.97"/><polygon class="cls-19" points="279.53 407.46 182.45 407.46 184.84 411.5 281.93 411.5 279.53 407.46"/><polygon class="cls-15" points="311.52 245.48 235.73 245.48 218.57 205.49 251.52 165.49 233.94 124.5 167.21 205.49 201.95 286.48 277.74 286.48 294.9 326.47 261.95 366.47 279.53 407.46 346.26 326.47 311.52 245.48"/><polygon class="cls-20" points="346.26 326.47 279.53 407.46 281.93 411.5 348.65 330.51 346.26 326.47"/><polygon class="cls-21" points="261.95 366.47 279.53 407.46 182.45 407.46 216.22 366.47 261.95 366.47"/><path class="cls-15" d="M395.56,205.49h41.28v85.44c0,27.84,7.2,37.92,23.52,37.92s24-10.08,24-37.92V205.49h39.84v80.64c0,53.28-20.16,78.24-63.84,78.24s-64.8-25-64.8-78.24Z"/><path class="cls-15" d="M635.28,361.5,608.4,309.17H592.56V361.5H551.28v-156h59c33.6,0,62.4,11.52,62.4,50.4,0,22.32-10.08,37-25.2,45.12l33.84,60.48Zm-42.72-85h14.88c16.32,0,25-7.2,25-20.64s-8.64-17.76-25-17.76H592.56Z"/><path class="cls-15" d="M698.85,205.49h100.8v34.56H740.13v24.48H791v34.56H740.13v27.84h61.92V361.5H698.85Z"/><path class="cls-15" d="M828.88,205.49H875c47.52,0,80.16,22.08,80.16,77.28s-32.64,78.72-77.76,78.72H828.88Zm43.68,122.88c22.56,0,40.32-9.12,40.32-45.6s-17.76-44.16-40.32-44.16h-2.4v89.76Z"/><path class="cls-15" d="M979.84,205.49H1036c32.64,0,59,8.16,59,38.88,0,13.44-7.68,28.8-25.92,33.6v1c22.08,4.32,33.12,15.84,33.12,36.48,0,32.16-27.84,46.08-61.44,46.08h-61Zm55.2,61.44c13.44,0,19.68-6.72,19.68-16.32s-6.24-13.44-19.68-13.44h-13.92v29.76Zm2.88,62.88c16.32,0,24-6.24,24-17.76s-7.68-16.32-24-16.32h-16.8v34.08Z"/><path class="cls-15" d="M1124.44,205.49h41.28v156h-41.28Z"/><path class="cls-15" d="M1224.3,240.05H1183V205.49h123.84v34.56h-41.28V361.5H1224.3Z"/><path class="cls-15" d="M1340.2,313.73c11,8.88,25,15.12,36.48,15.12,12.48,0,17.76-4.08,17.76-11,0-7.44-7.92-9.84-21.12-15.12l-19.44-8.16c-16.8-6.72-31.44-20.88-31.44-43.44,0-26.64,24-48.48,58.08-48.48,17.76,0,37.44,6.72,51.84,20.88l-20.64,25.92c-10.56-7.44-19.68-11.28-31.2-11.28-10.08,0-16.32,3.6-16.32,10.56,0,7.44,8.88,10.08,23,15.6l19,7.44c19.44,7.68,30.48,21.12,30.48,42.72,0,26.4-22.08,49.92-61,49.92-19.68,0-42.24-7.2-59-22.32Z"/></svg>